<?xml version="1.0" encoding="UTF-8" standalone="no"?>
<svg
   height="24px"
   viewBox="0 -960 960 960"
   width="24px"
   fill="#e3e3e3"
   version="1.1"
   id="svg1"
   sodipodi:docname="mi-bluetooth-connected-symbolic.svg"
   inkscape:version="1.4.2 (ebf0e940d0, 2025-05-08)"
   xmlns:inkscape="http://www.inkscape.org/namespaces/inkscape"
   xmlns:sodipodi="http://sodipodi.sourceforge.net/DTD/sodipodi-0.dtd"
   xmlns="http://www.w3.org/2000/svg"
   xmlns:svg="http://www.w3.org/2000/svg">
  <defs
     id="defs1" />
  <sodipodi:namedview
     id="namedview1"
     pagecolor="#505050"
     bordercolor="#ffffff"
     borderopacity="1"
     inkscape:showpageshadow="0"
     inkscape:pageopacity="0"
     inkscape:pagecheckerboard="1"
     inkscape:deskcolor="#505050"
     inkscape:zoom="37.041667"
     inkscape:cx="12.013498"
     inkscape:cy="11.986502"
     inkscape:window-width="990"
     inkscape:window-height="1137"
     inkscape:window-x="0"
     inkscape:window-y="0"
     inkscape:window-maximized="1"
     inkscape:current-layer="svg1" />
  <path
     d="M440-80v-304L256-200l-56-56 224-224-224-224 56-56 184 184v-304h40l228 228-172 172 172 172L480-80h-40Zm80-496 76-76-76-74v150Zm0 342 76-74-76-76v150ZM200-420q-25 0-42.5-17.5T140-480q0-25 17.5-42.5T200-540q25 0 42.5 17.5T260-480q0 25-17.5 42.5T200-420Zm560 0q-25 0-42.5-17.5T700-480q0-25 17.5-42.5T760-540q25 0 42.5 17.5T820-480q0 25-17.5 42.5T760-420Z"
     id="path1" />
</svg>
