<?xml version="1.0" encoding="UTF-8" standalone="no"?>
<svg
   height="24px"
   viewBox="0 -960 960 960"
   width="24px"
   fill="#e3e3e3"
   version="1.1"
   id="svg1"
   sodipodi:docname="mi-lyrics-symbolic.svg"
   inkscape:version="1.4.2 (ebf0e940d0, 2025-05-08)"
   xmlns:inkscape="http://www.inkscape.org/namespaces/inkscape"
   xmlns:sodipodi="http://sodipodi.sourceforge.net/DTD/sodipodi-0.dtd"
   xmlns="http://www.w3.org/2000/svg"
   xmlns:svg="http://www.w3.org/2000/svg">
  <defs
     id="defs1" />
  <sodipodi:namedview
     id="namedview1"
     pagecolor="#505050"
     bordercolor="#ffffff"
     borderopacity="1"
     inkscape:showpageshadow="0"
     inkscape:pageopacity="0"
     inkscape:pagecheckerboard="1"
     inkscape:deskcolor="#505050"
     inkscape:zoom="37.041667"
     inkscape:cx="12.013498"
     inkscape:cy="11.986502"
     inkscape:window-width="990"
     inkscape:window-height="1137"
     inkscape:window-x="0"
     inkscape:window-y="0"
     inkscape:window-maximized="1"
     inkscape:current-layer="svg1" />
  <path
     d="M240-400h160v-80H240v80Zm520-80q-50 0-85-35t-35-85q0-50 35-85t85-35q11 0 20.5 2t19.5 5v-207h160v80h-80v240q0 50-35 85t-85 35Zm-520-40h280v-80H240v80Zm0-120h280v-80H240v80Zm0 400L80-80v-720q0-33 23.5-56.5T160-880h440q33 0 56.5 23.5T680-800v17q-55 24-87.5 73.5T560-600q0 60 32.5 109.5T680-417v97q0 33-23.5 56.5T600-240H240Z"
     id="path1" />
</svg>
