<?xml version="1.0" encoding="UTF-8" standalone="no"?>
<svg
   height="24"
   viewBox="0 -960 960 960"
   width="24"
   fill="#e3e3e3"
   version="1.1"
   id="svg1"
   sodipodi:docname="mi-power-settings-new-symbolic.svg"
   inkscape:version="1.4.2 (ebf0e940d0, 2025-05-08)"
   xmlns:inkscape="http://www.inkscape.org/namespaces/inkscape"
   xmlns:sodipodi="http://sodipodi.sourceforge.net/DTD/sodipodi-0.dtd"
   xmlns="http://www.w3.org/2000/svg"
   xmlns:svg="http://www.w3.org/2000/svg">
  <sodipodi:namedview
     id="namedview1"
     pagecolor="#505050"
     bordercolor="#ffffff"
     borderopacity="1"
     inkscape:showpageshadow="0"
     inkscape:pageopacity="0"
     inkscape:pagecheckerboard="1"
     inkscape:deskcolor="#505050"
     inkscape:zoom="37.041667"
     inkscape:cx="12.013498"
     inkscape:cy="11.986502"
     inkscape:window-width="990"
     inkscape:window-height="1137"
     inkscape:window-x="0"
     inkscape:window-y="0"
     inkscape:window-maximized="1"
     inkscape:current-layer="svg1" />
  <defs
     id="defs1" />
  <path
     d="M 480,-80 Q 397,-80 324,-111.5 251,-143 197,-197 143,-251 111.5,-324 80,-397 80,-480 80,-553 104.5,-618.5 129,-684 172,-736 q 11,-14 26.5,-13 15.5,1 26.5,11 11,10 14.5,26 3.5,16 -10.5,33 -32,41 -50.5,91.5 Q 160,-537 160,-480 q 0,134 93,227 93,93 227,93 134,0 227,-93 93,-93 93,-227 0,-57 -18.5,-107.5 Q 763,-638 731,-679 q -14,-17 -10.5,-33 3.5,-16 14.5,-26 11,-10 26.5,-11 15.5,-1 26.5,13 43,52 67.5,117.5 24.5,65.5 24.5,138.5 0,83 -31.5,156 -31.5,73 -85.5,127 -54,54 -127,85.5 Q 563,-80 480,-80 Z m 0,-360 q -17,0 -28.5,-11.5 Q 440,-463 440,-480 v -360 q 0,-17 11.5,-28.5 11.5,-11.5 28.5,-11.5 17,0 28.5,11.5 11.5,11.5 11.5,28.5 v 360 q 0,17 -11.5,28.5 Q 497,-440 480,-440 Z"
     id="path1" />
</svg>
