<?xml version="1.0" encoding="UTF-8" standalone="no"?>
<svg
   height="24px"
   viewBox="0 -960 960 960"
   width="24px"
   fill="#e3e3e3"
   version="1.1"
   id="svg1"
   sodipodi:docname="mi-restart-alt-symbolic.svg"
   inkscape:version="1.4.2 (ebf0e940d0, 2025-05-08)"
   xmlns:inkscape="http://www.inkscape.org/namespaces/inkscape"
   xmlns:sodipodi="http://sodipodi.sourceforge.net/DTD/sodipodi-0.dtd"
   xmlns="http://www.w3.org/2000/svg"
   xmlns:svg="http://www.w3.org/2000/svg">
  <defs
     id="defs1" />
  <sodipodi:namedview
     id="namedview1"
     pagecolor="#505050"
     bordercolor="#ffffff"
     borderopacity="1"
     inkscape:showpageshadow="0"
     inkscape:pageopacity="0"
     inkscape:pagecheckerboard="1"
     inkscape:deskcolor="#505050"
     inkscape:zoom="37.041667"
     inkscape:cx="12.013498"
     inkscape:cy="11.986502"
     inkscape:window-width="990"
     inkscape:window-height="1137"
     inkscape:window-x="0"
     inkscape:window-y="0"
     inkscape:window-maximized="1"
     inkscape:current-layer="svg1" />
  <path
     d="M393-132q-103-29-168-113.5T160-440q0-57 19-108.5t54-94.5q11-12 27-12.5t29 12.5q11 11 11.5 27T290-586q-24 31-37 68t-13 78q0 81 47.5 144.5T410-209q13 4 21.5 15t8.5 24q0 20-14 31.5t-33 6.5Zm174 0q-19 5-33-7t-14-32q0-12 8.5-23t21.5-15q75-24 122.5-87T720-440q0-100-70-170t-170-70h-3l16 16q11 11 11 28t-11 28q-11 11-28 11t-28-11l-84-84q-6-6-8.5-13t-2.5-15q0-8 2.5-15t8.5-13l84-84q11-11 28-11t28 11q11 11 11 28t-11 28l-16 16h3q134 0 227 93t93 227q0 109-65 194T567-132Z"
     id="path1" />
</svg>
