<?xml version="1.0" encoding="UTF-8" standalone="no"?>
<svg
   height="24px"
   viewBox="0 -960 960 960"
   width="24px"
   fill="#e3e3e3"
   version="1.1"
   id="svg1"
   sodipodi:docname="mi-repeat-one-symbolic.svg"
   inkscape:version="1.4.2 (ebf0e940d0, 2025-05-08)"
   xmlns:inkscape="http://www.inkscape.org/namespaces/inkscape"
   xmlns:sodipodi="http://sodipodi.sourceforge.net/DTD/sodipodi-0.dtd"
   xmlns="http://www.w3.org/2000/svg"
   xmlns:svg="http://www.w3.org/2000/svg">
  <defs
     id="defs1" />
  <sodipodi:namedview
     id="namedview1"
     pagecolor="#505050"
     bordercolor="#ffffff"
     borderopacity="1"
     inkscape:showpageshadow="0"
     inkscape:pageopacity="0"
     inkscape:pagecheckerboard="1"
     inkscape:deskcolor="#505050"
     inkscape:zoom="37.041667"
     inkscape:cx="12.013498"
     inkscape:cy="11.986502"
     inkscape:window-width="990"
     inkscape:window-height="1137"
     inkscape:window-x="0"
     inkscape:window-y="0"
     inkscape:window-maximized="1"
     inkscape:current-layer="svg1" />
  <path
     d="M460-540h-30q-13 0-21.5-8.5T400-570q0-13 8.5-21.5T430-600h50q17 0 28.5 11.5T520-560v170q0 13-8.5 21.5T490-360q-13 0-21.5-8.5T460-390v-150ZM274-200l34 34q12 12 11.5 28T308-110q-12 12-28.5 12.5T251-109L148-212q-6-6-8.5-13t-2.5-15q0-8 2.5-15t8.5-13l103-103q12-12 28.5-11.5T308-370q11 12 11.5 28T308-314l-34 34h406v-120q0-17 11.5-28.5T720-440q17 0 28.5 11.5T760-400v120q0 33-23.5 56.5T680-200H274Zm412-480H280v120q0 17-11.5 28.5T240-520q-17 0-28.5-11.5T200-560v-120q0-33 23.5-56.5T280-760h406l-34-34q-12-12-11.5-28t11.5-28q12-12 28.5-12.5T709-851l103 103q6 6 8.5 13t2.5 15q0 8-2.5 15t-8.5 13L709-589q-12 12-28.5 11.5T652-590q-11-12-11.5-28t11.5-28l34-34Z"
     id="path1" />
</svg>
