<?xml version="1.0" encoding="UTF-8" standalone="no"?>
<svg
   height="24px"
   viewBox="0 -960 960 960"
   width="24px"
   fill="#e3e3e3"
   version="1.1"
   id="svg1"
   sodipodi:docname="mi-skip-previous-symbolic.svg"
   inkscape:version="1.4.2 (ebf0e940d0, 2025-05-08)"
   xmlns:inkscape="http://www.inkscape.org/namespaces/inkscape"
   xmlns:sodipodi="http://sodipodi.sourceforge.net/DTD/sodipodi-0.dtd"
   xmlns="http://www.w3.org/2000/svg"
   xmlns:svg="http://www.w3.org/2000/svg">
  <defs
     id="defs1" />
  <sodipodi:namedview
     id="namedview1"
     pagecolor="#505050"
     bordercolor="#ffffff"
     borderopacity="1"
     inkscape:showpageshadow="0"
     inkscape:pageopacity="0"
     inkscape:pagecheckerboard="1"
     inkscape:deskcolor="#505050"
     inkscape:zoom="37.041667"
     inkscape:cx="12.013498"
     inkscape:cy="11.986502"
     inkscape:window-width="990"
     inkscape:window-height="1137"
     inkscape:window-x="0"
     inkscape:window-y="0"
     inkscape:window-maximized="1"
     inkscape:current-layer="svg1" />
  <path
     d="M220-280v-400q0-17 11.5-28.5T260-720q17 0 28.5 11.5T300-680v400q0 17-11.5 28.5T260-240q-17 0-28.5-11.5T220-280Zm458-1L430-447q-9-6-13.5-14.5T412-480q0-10 4.5-18.5T430-513l248-166q5-4 11-5t11-1q16 0 28 11t12 29v330q0 18-12 29t-28 11q-5 0-11-1t-11-5Z"
     id="path1" />
</svg>
