<?xml version="1.0" encoding="UTF-8" standalone="no"?>
<svg
   height="24px"
   viewBox="0 -960 960 960"
   width="24px"
   fill="#e3e3e3"
   version="1.1"
   id="svg1"
   sodipodi:docname="mi-shuffle-symbolic.svg"
   inkscape:version="1.4.2 (ebf0e940d0, 2025-05-08)"
   xmlns:inkscape="http://www.inkscape.org/namespaces/inkscape"
   xmlns:sodipodi="http://sodipodi.sourceforge.net/DTD/sodipodi-0.dtd"
   xmlns="http://www.w3.org/2000/svg"
   xmlns:svg="http://www.w3.org/2000/svg">
  <defs
     id="defs1" />
  <sodipodi:namedview
     id="namedview1"
     pagecolor="#505050"
     bordercolor="#ffffff"
     borderopacity="1"
     inkscape:showpageshadow="0"
     inkscape:pageopacity="0"
     inkscape:pagecheckerboard="1"
     inkscape:deskcolor="#505050"
     inkscape:zoom="37.041667"
     inkscape:cx="12.013498"
     inkscape:cy="11.986502"
     inkscape:window-width="990"
     inkscape:window-height="1137"
     inkscape:window-x="0"
     inkscape:window-y="0"
     inkscape:window-maximized="1"
     inkscape:current-layer="svg1" />
  <path
     d="M600-160q-17 0-28.5-11.5T560-200q0-17 11.5-28.5T600-240h64l-99-99q-12-12-11.5-28.5T566-396q12-12 28.5-12t28.5 12l97 98v-62q0-17 11.5-28.5T760-400q17 0 28.5 11.5T800-360v160q0 17-11.5 28.5T760-160H600Zm-428-12q-11-11-11-28t11-28l492-492h-64q-17 0-28.5-11.5T560-760q0-17 11.5-28.5T600-800h160q17 0 28.5 11.5T800-760v160q0 17-11.5 28.5T760-560q-17 0-28.5-11.5T720-600v-64L228-172q-11 11-28 11t-28-11Zm-1-560q-11-11-11-28t11-28q11-11 27.5-11t28.5 11l168 167q11 11 11.5 27.5T395-565q-11 11-28 11t-28-11L171-732Z"
     id="path1" />
</svg>
