<?xml version="1.0" encoding="UTF-8" standalone="no"?>
<svg
   height="24px"
   viewBox="0 -960 960 960"
   width="24px"
   fill="#e3e3e3"
   version="1.1"
   id="svg1"
   sodipodi:docname="mi-memory-symbolic.svg"
   inkscape:version="1.4.2 (ebf0e940d0, 2025-05-08)"
   xmlns:inkscape="http://www.inkscape.org/namespaces/inkscape"
   xmlns:sodipodi="http://sodipodi.sourceforge.net/DTD/sodipodi-0.dtd"
   xmlns="http://www.w3.org/2000/svg"
   xmlns:svg="http://www.w3.org/2000/svg">
  <defs
     id="defs1" />
  <sodipodi:namedview
     id="namedview1"
     pagecolor="#505050"
     bordercolor="#ffffff"
     borderopacity="1"
     inkscape:showpageshadow="0"
     inkscape:pageopacity="0"
     inkscape:pagecheckerboard="1"
     inkscape:deskcolor="#505050"
     inkscape:zoom="13.458333"
     inkscape:cx="11.962848"
     inkscape:cy="11.962848"
     inkscape:window-width="990"
     inkscape:window-height="563"
     inkscape:window-x="0"
     inkscape:window-y="0"
     inkscape:window-maximized="1"
     inkscape:current-layer="svg1" />
  <path
     d="M360-400v-160q0-17 11.5-28.5T400-600h160q17 0 28.5 11.5T600-560v160q0 17-11.5 28.5T560-360H400q-17 0-28.5-11.5T360-400Zm0 240v-40h-80q-33 0-56.5-23.5T200-280v-80h-40q-17 0-28.5-11.5T120-400q0-17 11.5-28.5T160-440h40v-80h-40q-17 0-28.5-11.5T120-560q0-17 11.5-28.5T160-600h40v-80q0-33 23.5-56.5T280-760h80v-40q0-17 11.5-28.5T400-840q17 0 28.5 11.5T440-800v40h80v-40q0-17 11.5-28.5T560-840q17 0 28.5 11.5T600-800v40h80q33 0 56.5 23.5T760-680v80h40q17 0 28.5 11.5T840-560q0 17-11.5 28.5T800-520h-40v80h40q17 0 28.5 11.5T840-400q0 17-11.5 28.5T800-360h-40v80q0 33-23.5 56.5T680-200h-80v40q0 17-11.5 28.5T560-120q-17 0-28.5-11.5T520-160v-40h-80v40q0 17-11.5 28.5T400-120q-17 0-28.5-11.5T360-160Zm320-120v-400H280v400h400Z"
     id="path1" />
</svg>
