<?xml version="1.0" encoding="UTF-8" standalone="no"?>
<svg
   height="24px"
   viewBox="0 -960 960 960"
   width="24px"
   fill="#e3e3e3"
   version="1.1"
   id="svg1"
   sodipodi:docname="mi-memory-alt-symbolic.svg"
   inkscape:version="1.4.2 (ebf0e940d0, 2025-05-08)"
   xmlns:inkscape="http://www.inkscape.org/namespaces/inkscape"
   xmlns:sodipodi="http://sodipodi.sourceforge.net/DTD/sodipodi-0.dtd"
   xmlns="http://www.w3.org/2000/svg"
   xmlns:svg="http://www.w3.org/2000/svg">
  <defs
     id="defs1" />
  <sodipodi:namedview
     id="namedview1"
     pagecolor="#505050"
     bordercolor="#ffffff"
     borderopacity="1"
     inkscape:showpageshadow="0"
     inkscape:pageopacity="0"
     inkscape:pagecheckerboard="1"
     inkscape:deskcolor="#505050"
     inkscape:zoom="4.25"
     inkscape:cx="12"
     inkscape:cy="12"
     inkscape:window-width="1904"
     inkscape:window-height="1137"
     inkscape:window-x="0"
     inkscape:window-y="0"
     inkscape:window-maximized="1"
     inkscape:current-layer="svg1" />
  <path
     d="M280-360q17 0 28.5-11.5T320-400v-160q0-17-11.5-28.5T280-600q-17 0-28.5 11.5T240-560v160q0 17 11.5 28.5T280-360Zm200 0q17 0 28.5-11.5T520-400v-160q0-17-11.5-28.5T480-600q-17 0-28.5 11.5T440-560v160q0 17 11.5 28.5T480-360Zm200 0q17 0 28.5-11.5T720-400v-160q0-17-11.5-28.5T680-600q-17 0-28.5 11.5T640-560v160q0 17 11.5 28.5T680-360ZM160-200q-33 0-56.5-23.5T80-280v-400q0-33 23.5-56.5T160-760h40v-40q0-17 11.5-28.5T240-840q17 0 28.5 11.5T280-800v40h160v-40q0-17 11.5-28.5T480-840q17 0 28.5 11.5T520-800v40h160v-40q0-17 11.5-28.5T720-840q17 0 28.5 11.5T760-800v40h40q33 0 56.5 23.5T880-680v400q0 33-23.5 56.5T800-200h-40v40q0 17-11.5 28.5T720-120q-17 0-28.5-11.5T680-160v-40H520v40q0 17-11.5 28.5T480-120q-17 0-28.5-11.5T440-160v-40H280v40q0 17-11.5 28.5T240-120q-17 0-28.5-11.5T200-160v-40h-40Z"
     id="path1" />
</svg>
